Coordinates
version=1
nRows=10
nColumns=40
inDegrees=yes

Units are S.I. units (second, meters, Newtons, ...)
Angles are in degrees.

endheader
time	pelvis_tilt	pelvis_list	pelvis_rotation	pelvis_tx	pelvis_ty	pelvis_tz	hip_flexion_r	hip_adduction_r	hip_rotation_r	knee_angle_r	knee_angle_r_beta	ankle_angle_r	subtalar_angle_r	mtp_angle_r	hip_flexion_l	hip_adduction_l	hip_rotation_l	knee_angle_l	knee_angle_l_beta	ankle_angle_l	subtalar_angle_l	mtp_angle_l	lumbar_extension	lumbar_bending	lumbar_rotation	arm_flex_r	arm_add_r	arm_rot_r	elbow_flex_r	pro_sup_r	wrist_flex_r	wrist_dev_r	arm_flex_l	arm_add_l	arm_rot_l	elbow_flex_l	pro_sup_l	wrist_flex_l	wrist_dev_l
     41.73000000	     -3.63758348	     -4.03953861	     -5.96033016	      1.03552007	      0.93255159	      0.45529689	     23.26450210	     -0.88706823	    -10.69095519	      7.95642029	      7.95642029	      3.79490053	     12.90475280	     11.50149300	      5.09033135	     -5.36391471	    -13.92818699	     15.24224386	     15.24224386	     14.83824479	     -4.98266343	     -7.65483920	     -9.98088218	      0.50732681	     -0.52360687	     -7.62079442	    -15.78026462	    -11.64568791	     33.03050124	     46.06180935	      0.00000000	      0.00000000	     20.66387256	    -15.00431769	      0.07791039	     43.33593104	     45.45421777	      0.00000000	      0.00000000
     41.74385714	     -3.63836432	     -4.10052426	     -6.07307635	      1.03547369	      0.93213346	      0.45723924	     22.90212138	     -0.71255085	    -11.04484216	      8.76180677	      8.76180677	      3.68059641	     12.46810144	     11.09518249	      4.58507691	     -5.47942970	    -13.90208031	     15.08715047	     15.08715047	     15.02169200	     -5.11602800	     -7.60673134	     -9.94857193	      0.71102927	     -0.46892276	     -7.01512008	    -15.72766665	    -11.65148421	     33.37501140	     46.05248123	      0.00000000	      0.00000000	     20.70654087	    -14.84937184	      0.15576735	     43.53472949	     45.45083180	      0.00000000	      0.00000000
     41.75771429	     -3.60198336	     -3.83723249	     -6.14969121	      1.03576744	      0.93136350	      0.45920897	     22.59394736	     -0.88364141	    -10.83756443	      9.81787207	      9.81787207	      2.06117719	     11.29487253	      5.21443130	      3.96494423	     -5.19554583	    -13.83543967	     14.74541122	     14.74541122	     15.16005153	     -5.33539166	     -7.49649652	     -9.86724725	      0.55668726	     -0.75989001	     -6.80581650	    -15.73732441	    -11.56157196	     34.90649663	     45.98350966	      0.00000000	      0.00000000	     20.01465371	    -15.36455861	      0.73181940	     45.00442557	     45.48372465	      0.00000000	      0.00000000
     41.77157143	     -3.60002672	     -3.91719569	     -6.10932736	      1.03615538	      0.93088727	      0.46117973	     22.05619785	     -0.76903551	    -11.05662769	     10.70645708	     10.70645708	      1.97904872	     10.69527987	      5.00900354	      3.46159819	     -5.35352417	    -13.76979316	     14.62131950	     14.62131950	     15.38093730	     -5.30033886	     -7.47693948	     -9.77690113	      0.83127343	     -0.72470380	     -6.23673215	    -15.63600759	    -11.54103360	     35.21056781	     45.97388637	      0.00000000	      0.00000000	     20.00007786	    -15.08895406	      0.81533373	     45.01550592	     45.47813958	      0.00000000	      0.00000000
     41.78542857	     -3.57733426	     -3.71916217	     -6.11903663	      1.03669477	      0.93021229	      0.46333397	     21.87742425	     -0.90647870	    -10.45399535	     12.22477247	     12.22477247	      2.06107608	      9.09824787	      4.07436344	      2.83944268	     -5.20186299	    -13.91656489	     14.29711491	     14.29711491	     15.68028317	     -4.94295765	     -7.18780699	     -9.62981590	      0.79277375	     -0.95993225	     -5.75708391	    -15.56905429	    -11.55586576	     36.07352172	     45.94261837	      0.00000000	      0.00000000	     19.78561598	    -15.23181053	      0.84587304	     44.93894377	     45.48394655	      0.00000000	      0.00000000
     41.79928571	     -3.61789013	     -3.79597069	     -6.01262596	      1.03739456	      0.92962907	      0.46551971	     21.28075051	     -0.76660847	    -10.54253915	     12.81146452	     12.81146452	      2.06080646	      8.68700197	      3.87732664	      2.41356251	     -5.39089001	    -13.80799203	     14.25156924	     14.25156924	     15.95851889	     -4.90294960	     -7.18374362	     -9.42264305	      1.04385064	     -0.85192932	     -5.30759739	    -15.53045571	    -11.54044054	     36.37322761	     45.93273457	      0.00000000	      0.00000000	     19.65933939	    -14.99744415	      0.91273243	     44.91407154	     45.47747045	      0.00000000	      0.00000000
     41.81314286	     -3.48161961	     -3.80381035	     -5.91975214	      1.03820297	      0.92915384	      0.46801824	     20.76590920	     -0.54111271	     -9.35807298	     13.63431048	     13.63431048	      1.41525656	      6.36211286	      1.01074709	      1.88713625	     -5.62682995	    -14.29840616	     14.51164147	     14.51164147	     17.10588587	     -3.63651873	     -5.39197311	     -9.50658591	      1.31136026	     -0.94812678	     -5.70457298	    -15.68056934	    -11.09582685	     39.40858879	     45.78258075	      0.00000000	      0.00000000	     19.43199550	    -15.02870422	      0.94325370	     44.96430623	     45.52118126	      0.00000000	      0.00000000
     41.82700000	     -3.42705206	     -3.85510357	     -5.78165460	      1.03907174	      0.92878895	      0.47041677	     20.32451470	     -0.40864399	     -9.15699328	     14.34496973	     14.34496973	      1.70136586	      5.78957457	      0.60311233	      1.36159833	     -5.80789438	    -14.24661605	     14.47068516	     14.47068516	     17.36443679	     -3.48844920	     -5.15671627	     -9.42787609	      1.57733784	     -1.03631505	     -5.16225963	    -15.68147965	    -11.03011465	     39.92251696	     45.76286565	      0.00000000	      0.00000000	     19.21894052	    -14.97484679	      1.02045867	     44.67341405	     45.51601749	      0.00000000	      0.00000000
     41.84085714	     -3.44582909	     -3.97461636	     -5.64089162	      1.03985513	      0.92850180	      0.47311468	     19.92306722	     -0.06188618	     -8.45091387	     14.73448517	     14.73448517	      1.72855848	      4.41398032	     -0.31274466	      1.08557031	     -6.16586212	    -14.28255232	     14.80384743	     14.80384743	     18.05152209	     -3.05370400	     -4.00100464	     -9.29153515	      1.94469989	     -1.10587479	     -4.90834894	    -15.73953167	    -10.60663196	     41.38218585	     45.68688353	      0.00000000	      0.00000000	     18.94673295	    -14.87856694	      1.06129449	     44.16788747	     45.52989593	      0.00000000	      0.00000000
     41.85471429	     -3.33941421	     -4.13929643	     -5.50713284	      1.04074337	      0.92855223	      0.47592751	     19.45123352	      0.23079745	     -8.35123258	     15.14703547	     15.14703547	      2.18408807	      4.15583666	     -0.66472007	      0.66994733	     -6.54387353	    -14.16993029	     15.08602996	     15.08602996	     18.19245817	     -3.13506494	     -3.82136306	     -9.30900689	      2.30751259	     -0.94496777	     -4.38935022	    -15.76067372	    -10.54056669	     41.78665706	     45.67156960	      0.00000000	      0.00000000	     18.68469906	    -14.64660401	      1.12487535	     43.99705549	     45.52279977	      0.00000000	      0.00000000
